<svg width="210" height="45" viewBox="0 0 210 45" fill="none" xmlns="http://www.w3.org/2000/svg">
<path d="M59.1211 24.333L40.333 43.1211L27.6055 30.3936L13.333 44.667L0 31.333L18.1816 13.1514L30.9092 25.8779L45.7881 11L59.1211 24.333Z" fill="#FFFEFE"/>
<path d="M74.68 40L66.92 18.8H73L77.96 33.16L82.72 18.8H88.84L81.04 40H74.68ZM99.5753 40.4C97.7086 40.4 96.0953 40.0933 94.7353 39.48C93.3753 38.84 92.2553 38 91.3753 36.96C90.4953 35.8933 89.8286 34.7067 89.3753 33.4C88.9486 32.0933 88.7353 30.7467 88.7353 29.36C88.7353 28.0267 88.9353 26.72 89.3353 25.44C89.762 24.1333 90.402 22.9467 91.2553 21.88C92.1353 20.8133 93.242 19.9733 94.5753 19.36C95.9353 18.72 97.5353 18.4 99.3753 18.4C101.322 18.4 103.042 18.8267 104.535 19.68C106.055 20.5333 107.242 21.8 108.095 23.48C108.949 25.1333 109.375 27.1467 109.375 29.52V31H94.8553C94.9353 32.28 95.3753 33.3867 96.1753 34.32C97.002 35.2533 98.1353 35.72 99.5753 35.72C100.402 35.72 101.069 35.6 101.575 35.36C102.109 35.0933 102.522 34.8 102.815 34.48C103.109 34.1333 103.309 33.8267 103.415 33.56C103.522 33.2933 103.575 33.16 103.575 33.16H109.175C109.175 33.16 109.109 33.4133 108.975 33.92C108.869 34.4 108.629 35 108.255 35.72C107.882 36.44 107.335 37.16 106.615 37.88C105.922 38.6 105.002 39.2 103.855 39.68C102.709 40.16 101.282 40.4 99.5753 40.4ZM94.8553 27.32H103.535C103.455 25.8533 103.015 24.76 102.215 24.04C101.415 23.32 100.429 22.96 99.2553 22.96C98.082 22.96 97.082 23.3467 96.2553 24.12C95.4286 24.8667 94.962 25.9333 94.8553 27.32ZM111.508 40V18.8H117.588V21.84H117.788C118.028 21.4133 118.374 20.9333 118.828 20.4C119.308 19.8667 119.934 19.4 120.708 19C121.508 18.6 122.521 18.4 123.748 18.4C125.401 18.4 126.748 18.7867 127.788 19.56C128.828 20.3067 129.588 21.28 130.068 22.48C130.548 23.6533 130.788 24.8933 130.788 26.2V40H124.708V27.24C124.708 26.2267 124.428 25.3333 123.868 24.56C123.334 23.7867 122.468 23.4 121.268 23.4C120.361 23.4 119.641 23.6133 119.108 24.04C118.574 24.4667 118.188 25.0133 117.948 25.68C117.708 26.3467 117.588 27.0533 117.588 27.8V40H111.508ZM140.014 40.4C138.52 40.4 137.28 40.08 136.294 39.44C135.334 38.8 134.614 37.9467 134.134 36.88C133.654 35.7867 133.414 34.56 133.414 33.2V18.8H139.454V32C139.454 33.0133 139.72 33.84 140.254 34.48C140.787 35.0933 141.574 35.4 142.614 35.4C143.494 35.4 144.187 35.1867 144.694 34.76C145.227 34.3333 145.614 33.7867 145.854 33.12C146.094 32.4533 146.214 31.7467 146.214 31V18.8H152.294V40H146.214V37H145.974C145.52 37.8267 144.814 38.6 143.854 39.32C142.92 40.04 141.64 40.4 140.014 40.4ZM163.849 40.4C162.089 40.4 160.636 40.16 159.489 39.68C158.343 39.2 157.423 38.6133 156.729 37.92C156.063 37.2 155.556 36.4933 155.209 35.8C154.889 35.08 154.676 34.48 154.569 34C154.489 33.52 154.449 33.28 154.449 33.28H160.089C160.089 33.28 160.129 33.4133 160.209 33.68C160.289 33.9467 160.463 34.2533 160.729 34.6C161.023 34.9467 161.436 35.2533 161.969 35.52C162.503 35.7867 163.223 35.92 164.129 35.92C165.249 35.92 166.009 35.6933 166.409 35.24C166.836 34.7867 167.049 34.3333 167.049 33.88C167.049 32.92 166.263 32.28 164.689 31.96L161.809 31.4C160.583 31.16 159.423 30.8133 158.329 30.36C157.263 29.88 156.396 29.2267 155.729 28.4C155.089 27.5467 154.769 26.4533 154.769 25.12C154.769 23.84 155.103 22.6933 155.769 21.68C156.436 20.6667 157.383 19.8667 158.609 19.28C159.863 18.6933 161.356 18.4 163.089 18.4C164.716 18.4 166.063 18.6267 167.129 19.08C168.223 19.5067 169.089 20.0533 169.729 20.72C170.369 21.36 170.849 22.0133 171.169 22.68C171.489 23.32 171.689 23.8667 171.769 24.32C171.876 24.7467 171.929 24.96 171.929 24.96H166.489C166.489 24.96 166.409 24.7867 166.249 24.44C166.089 24.0667 165.756 23.7067 165.249 23.36C164.769 22.9867 164.023 22.8 163.009 22.8C161.969 22.8 161.249 23.0133 160.849 23.44C160.449 23.84 160.249 24.2667 160.249 24.72C160.249 25.2533 160.476 25.6533 160.929 25.92C161.409 26.1867 162.023 26.4 162.769 26.56L165.529 27.12C167.556 27.52 169.223 28.2267 170.529 29.24C171.836 30.2267 172.489 31.6667 172.489 33.56C172.489 34.84 172.156 36 171.489 37.04C170.823 38.08 169.849 38.9067 168.569 39.52C167.289 40.1067 165.716 40.4 163.849 40.4ZM176.734 29.92V25.12H182.734V19.12H187.534V25.12H193.534V29.92H187.534V35.92H182.734V29.92H176.734Z" fill="white"/>
</svg>
